<mxfile host="app.diagrams.net" agent="Mozilla/5.0 (Macintosh; Intel Mac OS X 10_15_7) AppleWebKit/605.1.15 (KHTML, like Gecko) Version/18.4 Safari/605.1.15" version="27.0.8">
  <diagram id="C5RBs43oDa-KdzZeNtuy" name="Page-1">
    <mxGraphModel dx="930" dy="671" grid="1" gridSize="10" guides="1" tooltips="1" connect="1" arrows="1" fold="1" page="1" pageScale="1" pageWidth="827" pageHeight="1169" math="0" shadow="0">
      <root>
        <mxCell id="WIyWlLk6GJQsqaUBKTNV-0" />
        <mxCell id="WIyWlLk6GJQsqaUBKTNV-1" parent="WIyWlLk6GJQsqaUBKTNV-0" />
        <mxCell id="9kItGldFHsQrrX-UtO4s-0" value="파카파카 프로그램 시작" style="rounded=1;whiteSpace=wrap;html=1;" parent="WIyWlLk6GJQsqaUBKTNV-1" vertex="1">
          <mxGeometry x="350" y="370" width="120" height="50" as="geometry" />
        </mxCell>
        <mxCell id="9kItGldFHsQrrX-UtO4s-11" value="기준 자세 제시" style="rhombus;whiteSpace=wrap;html=1;" parent="WIyWlLk6GJQsqaUBKTNV-1" vertex="1">
          <mxGeometry x="345" y="470" width="130" height="80" as="geometry" />
        </mxCell>
        <mxCell id="9kItGldFHsQrrX-UtO4s-31" value="고개 숙임 (90)" style="rounded=0;whiteSpace=wrap;html=1;" parent="WIyWlLk6GJQsqaUBKTNV-1" vertex="1">
          <mxGeometry x="350" y="840" width="120" height="60" as="geometry" />
        </mxCell>
        <mxCell id="9kItGldFHsQrrX-UtO4s-37" value="고개 숙임 (180)&lt;div&gt;파카파카 Shake&lt;/div&gt;&lt;div&gt;8초 딜레이&lt;/div&gt;" style="rounded=0;whiteSpace=wrap;html=1;" parent="WIyWlLk6GJQsqaUBKTNV-1" vertex="1">
          <mxGeometry x="590" y="720" width="120" height="60" as="geometry" />
        </mxCell>
        <mxCell id="9kItGldFHsQrrX-UtO4s-48" value="" style="rounded=0;html=1;jettySize=auto;orthogonalLoop=1;fontSize=11;endArrow=block;endFill=0;endSize=8;strokeWidth=1;shadow=0;labelBackgroundColor=none;edgeStyle=orthogonalEdgeStyle;" parent="WIyWlLk6GJQsqaUBKTNV-1" edge="1">
          <mxGeometry relative="1" as="geometry">
            <mxPoint x="410" y="420" as="sourcePoint" />
            <mxPoint x="409.5" y="470" as="targetPoint" />
            <Array as="points">
              <mxPoint x="409.5" y="470" />
              <mxPoint x="409.5" y="470" />
            </Array>
          </mxGeometry>
        </mxCell>
        <mxCell id="9kItGldFHsQrrX-UtO4s-49" value="" style="rounded=0;html=1;jettySize=auto;orthogonalLoop=1;fontSize=11;endArrow=block;endFill=0;endSize=8;strokeWidth=1;shadow=0;labelBackgroundColor=none;edgeStyle=orthogonalEdgeStyle;" parent="WIyWlLk6GJQsqaUBKTNV-1" edge="1">
          <mxGeometry relative="1" as="geometry">
            <mxPoint x="410" y="550" as="sourcePoint" />
            <mxPoint x="409.5" y="600" as="targetPoint" />
            <Array as="points">
              <mxPoint x="409.5" y="600" />
              <mxPoint x="409.5" y="600" />
            </Array>
          </mxGeometry>
        </mxCell>
        <mxCell id="9kItGldFHsQrrX-UtO4s-50" value="확인 입력(키보드)&amp;nbsp;" style="edgeLabel;html=1;align=center;verticalAlign=middle;resizable=0;points=[];" parent="9kItGldFHsQrrX-UtO4s-49" vertex="1" connectable="0">
          <mxGeometry x="-0.32" y="3" relative="1" as="geometry">
            <mxPoint as="offset" />
          </mxGeometry>
        </mxCell>
        <mxCell id="9kItGldFHsQrrX-UtO4s-51" value="기본 위치(0)" style="rounded=0;whiteSpace=wrap;html=1;" parent="WIyWlLk6GJQsqaUBKTNV-1" vertex="1">
          <mxGeometry x="100" y="720" width="120" height="60" as="geometry" />
        </mxCell>
        <mxCell id="9kItGldFHsQrrX-UtO4s-53" value="3초마다&lt;div&gt;거북목 점수 측정&lt;/div&gt;" style="rhombus;whiteSpace=wrap;html=1;" parent="WIyWlLk6GJQsqaUBKTNV-1" vertex="1">
          <mxGeometry x="345" y="710" width="130" height="80" as="geometry" />
        </mxCell>
        <mxCell id="9kItGldFHsQrrX-UtO4s-54" value="" style="rounded=0;html=1;jettySize=auto;orthogonalLoop=1;fontSize=11;endArrow=block;endFill=0;endSize=8;strokeWidth=1;shadow=0;labelBackgroundColor=none;edgeStyle=orthogonalEdgeStyle;" parent="WIyWlLk6GJQsqaUBKTNV-1" edge="1">
          <mxGeometry relative="1" as="geometry">
            <mxPoint x="410" y="660" as="sourcePoint" />
            <mxPoint x="409.5" y="710" as="targetPoint" />
            <Array as="points">
              <mxPoint x="409.5" y="710" />
              <mxPoint x="409.5" y="710" />
            </Array>
          </mxGeometry>
        </mxCell>
        <mxCell id="9kItGldFHsQrrX-UtO4s-55" value="" style="rounded=0;html=1;jettySize=auto;orthogonalLoop=1;fontSize=11;endArrow=block;endFill=0;endSize=8;strokeWidth=1;shadow=0;labelBackgroundColor=none;edgeStyle=orthogonalEdgeStyle;" parent="WIyWlLk6GJQsqaUBKTNV-1" edge="1">
          <mxGeometry relative="1" as="geometry">
            <mxPoint x="410" y="790" as="sourcePoint" />
            <mxPoint x="409.5" y="840" as="targetPoint" />
            <Array as="points">
              <mxPoint x="409.5" y="840" />
              <mxPoint x="409.5" y="840" />
            </Array>
          </mxGeometry>
        </mxCell>
        <mxCell id="9kItGldFHsQrrX-UtO4s-56" value="1단계 &amp;lt;= 점수 &amp;lt; 2단계" style="edgeLabel;html=1;align=center;verticalAlign=middle;resizable=0;points=[];" parent="9kItGldFHsQrrX-UtO4s-55" vertex="1" connectable="0">
          <mxGeometry x="-0.2" y="3" relative="1" as="geometry">
            <mxPoint as="offset" />
          </mxGeometry>
        </mxCell>
        <mxCell id="9kItGldFHsQrrX-UtO4s-60" value="" style="rounded=0;html=1;jettySize=auto;orthogonalLoop=1;fontSize=11;endArrow=block;endFill=0;endSize=8;strokeWidth=1;shadow=0;labelBackgroundColor=none;edgeStyle=orthogonalEdgeStyle;entryX=1;entryY=0.5;entryDx=0;entryDy=0;exitX=0;exitY=0.5;exitDx=0;exitDy=0;" parent="WIyWlLk6GJQsqaUBKTNV-1" source="9kItGldFHsQrrX-UtO4s-53" target="9kItGldFHsQrrX-UtO4s-51" edge="1">
          <mxGeometry relative="1" as="geometry">
            <mxPoint x="349.5" y="990" as="sourcePoint" />
            <mxPoint x="260" y="620" as="targetPoint" />
            <Array as="points">
              <mxPoint x="240" y="750" />
              <mxPoint x="240" y="750" />
            </Array>
          </mxGeometry>
        </mxCell>
        <mxCell id="9kItGldFHsQrrX-UtO4s-61" value="점수 &amp;lt; 1단계" style="edgeLabel;html=1;align=center;verticalAlign=middle;resizable=0;points=[];" parent="9kItGldFHsQrrX-UtO4s-60" vertex="1" connectable="0">
          <mxGeometry x="-0.0064" y="-5" relative="1" as="geometry">
            <mxPoint x="7" y="-5" as="offset" />
          </mxGeometry>
        </mxCell>
        <mxCell id="9kItGldFHsQrrX-UtO4s-68" value="" style="rounded=0;html=1;jettySize=auto;orthogonalLoop=1;fontSize=11;endArrow=block;endFill=0;endSize=8;strokeWidth=1;shadow=0;labelBackgroundColor=none;edgeStyle=orthogonalEdgeStyle;entryX=0;entryY=0.5;entryDx=0;entryDy=0;exitX=1;exitY=0.5;exitDx=0;exitDy=0;" parent="WIyWlLk6GJQsqaUBKTNV-1" source="9kItGldFHsQrrX-UtO4s-53" edge="1">
          <mxGeometry relative="1" as="geometry">
            <mxPoint x="540.5" y="760" as="sourcePoint" />
            <mxPoint x="590" y="750" as="targetPoint" />
            <Array as="points">
              <mxPoint x="570" y="750" />
              <mxPoint x="570" y="750" />
            </Array>
          </mxGeometry>
        </mxCell>
        <mxCell id="9kItGldFHsQrrX-UtO4s-69" value="점수 &amp;gt; 2단계" style="edgeLabel;html=1;align=center;verticalAlign=middle;resizable=0;points=[];" parent="9kItGldFHsQrrX-UtO4s-68" vertex="1" connectable="0">
          <mxGeometry x="-0.44" y="-3" relative="1" as="geometry">
            <mxPoint x="23" y="-13" as="offset" />
          </mxGeometry>
        </mxCell>
        <mxCell id="Tt41qBwlKaaihCDWv7bt-0" value="&lt;div&gt;&lt;font style=&quot;font-size: 36px;&quot;&gt;Sequence Diagram 2&lt;/font&gt;&lt;/div&gt;&lt;div&gt;&lt;font style=&quot;font-size: 24px;&quot;&gt;&lt;br&gt;&lt;/font&gt;&lt;/div&gt;&lt;font size=&quot;3&quot;&gt;3초마다 거북목 점수 측정&lt;/font&gt;&lt;div&gt;&lt;font size=&quot;3&quot;&gt;&amp;nbsp;사용자의 특정 동작으로&amp;nbsp;&lt;/font&gt;&lt;/div&gt;&lt;div&gt;&lt;font size=&quot;3&quot;&gt;자세 교정 세션 시작&lt;/font&gt;&lt;/div&gt;&lt;div&gt;&lt;font size=&quot;3&quot;&gt;Shake 동작으로 조금 더 강한 개입&lt;/font&gt;&lt;/div&gt;" style="text;html=1;align=center;verticalAlign=middle;whiteSpace=wrap;rounded=0;" parent="WIyWlLk6GJQsqaUBKTNV-1" vertex="1">
          <mxGeometry x="160" y="110" width="516" height="210" as="geometry" />
        </mxCell>
        <mxCell id="tOC-UZjXImqr8mPc3mO6-0" value="파카파카&lt;div&gt;거북목 모방 시작&lt;/div&gt;" style="ellipse;whiteSpace=wrap;html=1;" parent="WIyWlLk6GJQsqaUBKTNV-1" vertex="1">
          <mxGeometry x="350" y="600" width="120" height="80" as="geometry" />
        </mxCell>
        <mxCell id="tOC-UZjXImqr8mPc3mO6-3" value="자세 교정 세션&lt;div&gt;(쓰다듬기/키보드 입력 등으로)&lt;/div&gt;&lt;div&gt;&lt;br&gt;&lt;/div&gt;" style="ellipse;whiteSpace=wrap;html=1;aspect=fixed;" parent="WIyWlLk6GJQsqaUBKTNV-1" vertex="1">
          <mxGeometry x="100" y="420" width="95" height="95" as="geometry" />
        </mxCell>
        <mxCell id="tOC-UZjXImqr8mPc3mO6-4" value="" style="rounded=0;html=1;jettySize=auto;orthogonalLoop=1;fontSize=11;endArrow=block;endFill=0;endSize=8;strokeWidth=1;shadow=0;labelBackgroundColor=none;edgeStyle=orthogonalEdgeStyle;entryX=0.5;entryY=0;entryDx=0;entryDy=0;" parent="WIyWlLk6GJQsqaUBKTNV-1" target="tOC-UZjXImqr8mPc3mO6-5" edge="1">
          <mxGeometry relative="1" as="geometry">
            <mxPoint x="147.5" y="515" as="sourcePoint" />
            <mxPoint x="147" y="565" as="targetPoint" />
            <Array as="points" />
          </mxGeometry>
        </mxCell>
        <mxCell id="tOC-UZjXImqr8mPc3mO6-5" value="파카파카 효과음&lt;div&gt;끄덕끄덕 모션&lt;/div&gt;&lt;div&gt;기본위치(0)&lt;/div&gt;&lt;div&gt;8초 no action&lt;/div&gt;" style="rounded=0;whiteSpace=wrap;html=1;" parent="WIyWlLk6GJQsqaUBKTNV-1" vertex="1">
          <mxGeometry x="87.5" y="570" width="120" height="60" as="geometry" />
        </mxCell>
      </root>
    </mxGraphModel>
  </diagram>
</mxfile>
